# AST/ASF file generated using VICON BodyLanguage
# -----------------------------------------------
:version 1.10
:name VICON
:units
  mass 1.0
  length 0.45
  angle deg
:documentation
   .ast/.asf automatically generated from VICON data using
   VICON BodyBuilder and BodyLanguage model FoxedUp or BRILLIANT.MOD
:root
   order TX TY TZ RX RY RZ
   axis XYZ
   position 0 0 0  
   orientation 0 0 0 
:bonedata
  begin
     id 1 
     name lhipjoint
     direction 0.576517 -0.752066 0.319413 
     length 2.45433 
     axis 0 0 0  XYZ
  end
  begin
     id 2 
     name lfemur
     direction 0.34202 -0.939693 0  
     length 7.54459  
     axis 0 0 20  XYZ
    dof rx ry rz
    limits (-160.0 20.0)
           (-70.0 70.0)
           (-60.0 70.0)
  end
  begin
     id 3 
     name ltibia
     direction 0.34202 -0.939693 0   
     length 7.73986   
     axis 0 0 20   XYZ
    dof rx
    limits (-10.0 170.0)
  end
  begin
     id 4 
     name lfoot
     direction 0.090693 -0.249177 0.964202   
     length 2.28437   
     axis -90 7.62852e-016 20   XYZ
    dof rx rz
    limits (-45.0 90.0)
           (-70.0 20.0)
  end
  begin
     id 5 
     name ltoes
     direction 1.5356e-011 -4.21928e-011 1   
     length 1.14243   
     axis -90 7.62852e-016 20   XYZ
    dof rx
    limits (-90.0 20.0)
  end
  begin
     id 6 
     name rhipjoint
     direction -0.573937 -0.753736 0.320122   
     length 2.44889  
     axis 0 0 0  XYZ 
  end
  begin
     id 7 
     name rfemur
     direction -0.34202 -0.939693 0   
     length 7.50166   
     axis 0 0 -20   XYZ
    dof rx ry rz
    limits (-160.0 20.0)
           (-70.0 70.0)
           (-70.0 60.0)
  end
  begin
     id 8 
     name rtibia
     direction -0.34202 -0.939693 0   
     length 7.54266   
     axis 0 0 -20   XYZ
    dof rx
    limits (-10.0 170.0)
 end
 begin
     id 9 
     name rfoot
     direction -0.114017 -0.31326 0.942798   
     length 2.34212  
     axis -90 -7.62852e-016 -20   XYZ
    dof rx rz
    limits (-45.0 90.0)
           (-20.0 70.0)
  end
  begin
     id 10 
     name rtoes
     direction -1.53557e-011 -4.21867e-011 1   
     length 1.16246   
     axis -90 -7.62852e-016 -20   XYZ
    dof rx
    limits (-90.0 20.0)
  end
  begin
     id 11 
     name lowerback
     direction -0.0228371 0.999155 -0.034167   
     length 2.0537   
     axis 0 0 0   XYZ
    dof rx ry rz
    limits (-20.0 45.0)
           (-30.0 30.0)
           (-30.0 30.0)
  end
  begin
     id 12 
     name upperback
     direction 0.0198981 0.999794 0.00389455   
     length 2.05302   
     axis 0 0 0   XYZ
    dof rx ry rz
    limits (-20.0 45.0)
           (-30.0 30.0)
           (-30.0 30.0)
  end
  begin
     id 13 
     name thorax
     direction 0.0304566 0.99935 0.0192987   
     length 2.05315   
     axis 0 0 0   XYZ
    dof rx ry rz
    limits (-20.0 45.0)
           (-30.0 30.0)
           (-30.0 30.0)
  end
  begin
     id 14 
     name lowerneck
     direction -0.0196762 0.99417 0.106017   
     length 1.82056   
     axis 0 0 0   XYZ
    dof rx ry rz
    limits (-20.0 45.0)
           (-30.0 30.0)
           (-30.0 30.0)
  end
  begin
     id 15 
     name upperneck
     direction 0.00517787 0.9802 -0.197944   
     length 1.83835   
     axis 0 0 0   XYZ
    dof rx ry rz
    limits (-20.0 45.0)
           (-30.0 30.0)
           (-30.0 30.0)
  end
  begin
     id 16
     name head
     direction 0.00211419 0.996945 -0.078081  
     length 1.85629  
     axis 0 0 0   XYZ
    dof rx ry rz
    limits (-20.0 45.0)
           (-30.0 30.0)
           (-30.0 30.0)
  end
  begin
     id 17 
     name lclavicle
     direction 0.930001 0.365811 -0.0357824  
     length 3.81961  
     axis 0 0 0   XYZ
    dof ry rz
    limits (-20.0 10.0)
           (0.0 20.0)
  end
  begin
     id 18 
     name lhumerus
     direction 1 -4.48968e-011 -3.06644e-027   
     length 5.14507   
     axis 180 -30 -90   XYZ
    dof rx ry rz
    limits (-60.0 90.0)
           (-90.0 90.0)
           (-90.0 90.0)
  end
  begin
     id 19
     name lradius
     direction 1 -4.48965e-011 9.06925e-028   
     length 3.50646   
     axis 180 -30 -90   XYZ
    dof rx
    limits (-10.0 170.0)
  end
  begin
     id 20
     name lwrist
     direction 1 -4.48957e-011 1.03922e-027   
     length 1.75323   
     axis -2.56395e-016 90 90   XYZ
    dof ry
    limits (-180.0 0.0)
 end
  begin
     id 21 
     name lhand
     direction 1 -4.48967e-011 2.08017e-027   
     length 0.629969   
     axis -1.32723e-015 90 90   XYZ
    dof rx rz
    limits (-90.0 90.0)
           (-45.0 45.0)
  end
  begin
     id 22 
     name lfingers
     direction 1 -4.49089e-011 4.20095e-027   
     length 0.507897   
     axis -2.6545e-015 90 90   XYZ
    dof rx
    limits (0.0 90.0)
  end
  begin
     id 23
     name lthumb
     direction 0.707107 -6.35001e-011 0.707107   
     length 0.729241   
     axis -90 45 5.05613e-014   XYZ
    dof rx rz
    limits (-45.0 45.0)
           (-45.0 45.0)
  end
  begin
     id 24 
     name rclavicle
     direction -0.881882 0.464123 -0.0829113   
     length 3.47515  
     axis 0 0 0   XYZ 
    dof ry rz
    limits (-10.0 20.0)
           (-20.0 0.0)
  end
  begin
     id 25 
     name rhumerus
     direction -1 -4.48961e-011 -1.55672e-027  
     length 5.232   
     axis 180 30 90   XYZ
    dof rx ry rz
    limits (-90.0 60.0)
           (-90.0 90.0)
           (-90.0 90.0)
  end
  begin
     id 26 
     name rradius
     direction -1 -4.48963e-011 6.18178e-029   
     length 3.65641   
     axis 180 30 90   XYZ
    dof rx
    limits (-10.0 170.0)
  end
  begin
     id 27 
     name rwrist
     direction -1 -4.48982e-011 1.04136e-027   
     length 1.8282   
     axis -2.56395e-016 -90 -90   XYZ
    dof ry
    limits (-180.0 0.0)
  end
  begin
     id 28
     name rhand
     direction -1 -4.48929e-011 2.07378e-027   
     length 0.656807   
     axis -1.32723e-015 -90 -90   XYZ
    dof rx rz
    limits (-90.0 90.0)
           (-45.0 45.0)
  end
  begin
     id 29
     name rfingers
     direction -1 -4.489e-011 4.13816e-027   
     length 0.529535   
     axis -2.6545e-015 -90 -90   XYZ
    dof rx
    limits (0.0 90.0)
  end
  begin
     id 30
     name rthumb
     direction -0.707107 -6.34843e-011 0.707107   
     length 0.760309   
     axis -90 -45 -5.05613e-014   XYZ
    dof rx rz
    limits (-45.0 45.0)
           (-45.0 45.0)
  end
:hierarchy
  begin
    root lhipjoint rhipjoint lowerback
    lhipjoint lfemur
    lfemur ltibia
    ltibia lfoot
    lfoot ltoes
    rhipjoint rfemur
    rfemur rtibia
    rtibia rfoot
    rfoot rtoes
    lowerback upperback
    upperback thorax
    thorax lowerneck lclavicle rclavicle
    lowerneck upperneck
    upperneck head
    lclavicle lhumerus
    lhumerus lradius
    lradius lwrist
    lwrist lhand lthumb
    lhand lfingers
    rclavicle rhumerus
    rhumerus rradius
    rradius rwrist
    rwrist rhand rthumb
    rhand rfingers
  end

#!OML:ASF H:\ManfredETheater\Project 1\Capture day 1\Session 1\subject.ASF
:FULLY-SPECIFIED
:DEGREES
31
root 0.706038 16.0618 11.4386 -180.148 -8.53019 185.512
lowerback 17.3436 0.597744 4.43376
upperback 1.95844 1.45827 3.87838
thorax -7.60477 0.419041 1.3373
lowerneck -16.2821 -5.06049 -4.61681
upperneck 3.84007 -6.26636 3.7138
head 4.00434 -3.02833 1.36731
rclavicle -1.66979e-014 -2.46493e-014
rhumerus -44.5613 6.16003 -83.453
rradius 100.654
rwrist -5.98872
rhand -24.2695 13.2949
rfingers 7.12502
rthumb 2.21707 -16.6733
lclavicle -1.66979e-014 -2.46493e-014
lhumerus -69.6655 -15.9624 96.2217
lradius 91.1917
lwrist 12.7041
lhand -23.0163 -12.2649
lfingers 7.12502
lthumb 3.42735 17.6873
rfemur -20.3883 -11.3483 30.5881
rtibia 68.7212
rfoot -20.2802 -13.3377
rtoes -33.6639
lfemur -56.3391 -4.36848 -13.7999
ltibia 55.1713
lfoot -11.2844 -8.37818
ltoes -11.2619
32
root 0.698001 16.1009 10.9501 -180.328 -7.9132 185.395
lowerback 17.044 0.929321 4.14929
upperback 2.02185 1.8242 3.74074
thorax -7.3734 0.612967 1.26397
lowerneck -16.2375 -5.22741 -4.77233
upperneck 3.95329 -6.4772 3.96739
head 4.0552 -3.11786 1.45071
rclavicle -1.2921e-014 -3.89618e-014
rhumerus -44.6238 6.4734 -83.6991
rradius 102.903
rwrist -6.01512
rhand -24.0925 13.7197
rfingers 7.12502
rthumb 2.38806 -16.2466
lclavicle -1.2921e-014 -3.89618e-014
lhumerus -71.1789 -15.9299 96.2131
lradius 92.5948
lwrist 12.9853
lhand -22.8362 -12.2356
lfingers 7.12502
lthumb 3.60127 17.7137
rfemur -19.3238 -10.9661 29.9467
rtibia 70.0104
rfoot -18.6214 -11.6515
rtoes -31.9903
lfemur -55.2632 -4.78554 -13.6083
ltibia 49.0418
lfoot -9.87218 -7.95922
ltoes -12.3873
33
root 0.685577 16.1246 10.4571 -180.586 -7.19031 185.297
lowerback 16.7672 1.24549 3.8638
upperback 2.07755 2.17346 3.63621
thorax -7.16594 0.797569 1.23495
lowerneck -16.1512 -5.32593 -4.89414
upperneck 4.14561 -6.59413 4.10433
head 4.11551 -3.16547 1.50112
rclavicle -4.67144e-015 1.11319e-014
rhumerus -44.6997 6.81768 -83.9621
rradius 104.867
rwrist -6.18612
rhand -23.9696 14.0911
rfingers 7.12502
rthumb 2.50667 -15.8739
lclavicle -4.67144e-015 1.11319e-014
lhumerus -72.6644 -15.5856 96.1146
lradius 93.9315
lwrist 13.2466
lhand -22.7003 -12.2494
lfingers 7.12502
lthumb 3.73249 17.6977
rfemur -18.4059 -10.6353 29.2809
rtibia 71.5207
rfoot -17.163 -10.2101
rtoes -29.8533
lfemur -53.9996 -5.26016 -13.212
ltibia 43.5217
lfoot -8.46564 -6.86259
ltoes -13.464
34
root 0.669008 16.1327 9.9603 -180.918 -6.37891 185.237
lowerback 16.5082 1.53349 3.60358
upperback 2.11925 2.49409 3.56873
thorax -6.98609 0.966322 1.24119
lowerneck -16.0267 -5.35432 -4.97523
upperneck 4.42033 -6.61708 4.13353
head 4.18626 -3.17069 1.52027
rclavicle -1.87852e-014 -2.38542e-014
rhumerus -44.7773 7.19164 -84.2498
rradius 106.516
rwrist -6.39278
rhand -23.8649 14.4286
rfingers 7.12502
rthumb 2.60779 -15.5352
lclavicle -1.87852e-014 -2.38542e-014
lhumerus -74.1261 -14.9685 95.9359
lradius 95.2221
lwrist 13.5021
lhand -22.5808 -12.3321
lfingers 7.12502
lthumb 3.84787 17.6129
rfemur -17.6371 -10.37 28.6201
rtibia 73.2074
rfoot -15.9902 -9.15815
rtoes -27.5529
lfemur -52.6587 -5.75522 -12.6578
ltibia 38.8795
lfoot -7.20572 -5.24832
ltoes -14.4519
35
root 0.648826 16.1264 9.46068 -181.327 -5.49606 185.236
lowerback 16.2736 1.78352 3.40041
upperback 2.14805 2.77783 3.53982
thorax -6.83449 1.11407 1.26699
lowerneck -15.8623 -5.31178 -5.01318
upperneck 4.76023 -6.54795 4.0791
head 4.26255 -3.13389 1.51537
rclavicle -4.96962e-015 1.43125e-014
rhumerus -44.8545 7.56636 -84.5712
rradius 107.841
rwrist -6.52614
rhand -23.743 14.7369
rfingers 7.12502
rthumb 2.72557 -15.2254
lclavicle -4.96962e-015 1.43125e-014
lhumerus -75.5515 -14.1304 95.6834
lradius 96.4788
lwrist 13.7403
lhand -22.4485 -12.4769
lfingers 7.12502
lthumb 3.97567 17.4657
rfemur -17.0196 -10.1817 27.9952
rtibia 75.0278
rfoot -15.1505 -8.56649
rtoes -25.4641
lfemur -51.3255 -6.17003 -12.0476
ltibia 35.3414
lfoot -6.16906 -3.44895
ltoes -15.22
36
root 0.625825 16.1065 8.96025 -181.811 -4.57023 185.305
lowerback 16.078 1.98365 3.278
upperback 2.16141 3.01275 3.5453
thorax -6.71984 1.23427 1.29564
lowerneck -15.6617 -5.20257 -5.00645
upperneck 5.14923 -6.39548 3.96931
head 4.3414 -3.05844 1.49421
rclavicle 2.94201e-014 5.56597e-015
rhumerus -44.9423 7.90961 -84.9371
rradius 108.846
rwrist -6.49661
rhand -23.5762 15.0327
rfingers 7.12502
rthumb 2.88668 -14.9275
lclavicle 2.94201e-014 5.56597e-015
lhumerus -76.9235 -13.1331 95.3658
lradius 97.7085
lwrist 13.9339
lhand -22.2887 -12.6763
lfingers 7.12502
lthumb 4.13003 17.2634
rfemur -16.5718 -10.0867 27.4263
rtibia 76.9435
rfoot -14.6111 -8.41795
rtoes -23.8341
lfemur -50.0642 -6.37534 -11.5184
ltibia 33.0544
lfoot -5.44755 -1.86601
ltoes -15.7567
37
root 0.601372 16.0731 8.46101 -182.365 -3.62657 185.444
lowerback 15.9369 2.13106 3.24256
upperback 2.1661 3.19469 3.58079
thorax -6.64189 1.32439 1.31852
lowerneck -15.4386 -5.03558 -4.95337
upperneck 5.56063 -6.17369 3.82673
head 4.41828 -2.95063 1.4621
rclavicle 1.78906e-014 2.78299e-014
rhumerus -45.0495 8.17879 -85.3494
rradius 109.559
rwrist -6.24898
rhand -23.3668 15.2988
rfingers 7.12502
rthumb 3.08887 -14.6586
lclavicle 1.78906e-014 2.78299e-014
lhumerus -78.2001 -12.0447 94.9977
lradius 98.9075
lwrist 14.0459
lhand -22.1203 -12.8864
lfingers 7.12502
lthumb 4.29257 17.0501
rfemur -16.3186 -10.0879 26.9263
rtibia 78.9284
rfoot -14.3314 -8.65
rtoes -22.8049
lfemur -48.8949 -6.2442 -11.1934
ltibia 32.036
lfoot -4.98151 -0.865042
ltoes -16.5151
38
root 0.57656 16.0293 7.96611 -182.988 -2.72684 185.641
lowerback 15.8825 2.21247 3.29049
upperback 2.16774 3.30509 3.63851
thorax -6.61123 1.37496 1.33165
lowerneck -15.2126 -4.82259 -4.86294
upperneck 5.96922 -5.89824 3.6766
head 4.49059 -2.81721 1.42657
rclavicle -2.22639e-014 7.95139e-016
rhumerus -45.1845 8.34009 -85.8034
rradius 110.009
rwrist -5.80803
rhand -23.1314 15.5393
rfingers 7.12502
rthumb 3.31616 -14.4147
lclavicle -2.22639e-014 7.95139e-016
lhumerus -79.3351 -10.9283 94.6052
lradius 100.066
lwrist 14.051
lhand -21.9599 -13.0876
lfingers 7.12502
lthumb 4.44749 16.8457
rfemur -16.2732 -10.2359 26.4838
rtibia 80.9437
rfoot -14.251 -9.14021
rtoes -22.2522
lfemur -47.8748 -5.78217 -11.1054
ltibia 32.202
lfoot -4.60329 -0.518642
ltoes -16.7956
